<svg xmlns="http://www.w3.org/2000/svg" viewBox="0 0 304.63 365.78"><defs><style>.cls-1{fill:none;stroke:#fff;stroke-miterlimit:10;}.cls-2{fill:#c7b299;}.cls-3{fill:#fff;}</style></defs><g id="Layer_2" data-name="Layer 2"><g id="Layer_9" data-name="Layer 9"><path class="cls-1" d="M6.23,350.23H8.47l5.3,14.62H11.6l-1.48-4.38H4.33l-1.58,4.38h-2Zm3.25,8.63L7.26,352.4,4.9,358.86Z"/><path class="cls-1" d="M28.08,351.29a5.19,5.19,0,0,1,1.7,3.33H27.85a4,4,0,0,0-1.31-2.24,4.14,4.14,0,0,0-2.75-.83,4.43,4.43,0,0,0-3.49,1.52A6.94,6.94,0,0,0,19,357.72a6.76,6.76,0,0,0,1.2,4.17,4.2,4.2,0,0,0,3.58,1.6,3.76,3.76,0,0,0,3.33-1.69,6.28,6.28,0,0,0,.91-2.32h1.93a6.56,6.56,0,0,1-1.71,3.87,6.11,6.11,0,0,1-4.7,1.88,6.25,6.25,0,0,1-4.28-1.54c-1.52-1.36-2.28-3.47-2.28-6.3a8.06,8.06,0,0,1,1.71-5.31,6.27,6.27,0,0,1,5.11-2.25A6,6,0,0,1,28.08,351.29Z"/><path class="cls-1" d="M38.62,350.23h2.24l5.3,14.62H44l-1.48-4.38H36.73l-1.58,4.38h-2Zm3.25,8.63-2.22-6.46-2.36,6.46Z"/><path class="cls-1" d="M50.09,350.23H56a5.58,5.58,0,0,1,4.68,2.14,7.9,7.9,0,0,1,1.48,4.95,9.94,9.94,0,0,1-.87,4.21A5.42,5.42,0,0,1,56,364.85h-5.9Zm5.53,12.93a5.43,5.43,0,0,0,1.65-.21,3.66,3.66,0,0,0,1.89-1.49,6.12,6.12,0,0,0,.84-2.27,8.61,8.61,0,0,0,.15-1.54,7.23,7.23,0,0,0-1.07-4.22,4,4,0,0,0-3.48-1.5H52.08v11.23Z"/><path class="cls-1" d="M67,350.23H77.61V352H68.88v4.44H77v1.69H68.88v5h8.88v1.74H67Z"/><path class="cls-1" d="M82.34,350.23h2.84l4.2,12.36,4.17-12.36h2.81v14.62H94.48v-8.63c0-.3,0-.79,0-1.48s0-1.43,0-2.22l-4.17,12.33h-2l-4.2-12.33V353c0,.35,0,.9,0,1.63s0,1.28,0,1.62v8.63h-1.9Z"/><path class="cls-1" d="M100.28,350.23h2.31l4.2,7,4.2-7h2.32L107.78,359v5.89h-2V359Z"/><path class="cls-1" d="M136.43,352.32a8.06,8.06,0,0,1,1.46,5,8.68,8.68,0,0,1-1.67,5.44,6.58,6.58,0,0,1-5.56,2.55,6.68,6.68,0,0,1-5.31-2.23,8.47,8.47,0,0,1-1.72-5.44,8.57,8.57,0,0,1,1.48-5.07,6.36,6.36,0,0,1,5.59-2.71A6.69,6.69,0,0,1,136.43,352.32Zm-1.74,9.31a8.07,8.07,0,0,0,1.17-4.31,6.13,6.13,0,0,0-1.35-4.15,4.61,4.61,0,0,0-3.69-1.58,4.79,4.79,0,0,0-3.7,1.56,6.54,6.54,0,0,0-1.44,4.59,6.72,6.72,0,0,0,1.23,4.1,4.63,4.63,0,0,0,4,1.67A4.14,4.14,0,0,0,134.69,361.63Z"/><path class="cls-1" d="M142.47,350.23h10.14V352h-8.16v4.44h7.18v1.74h-7.18v6.65h-2Z"/><path class="cls-1" d="M164.56,350.23h5.93a5.57,5.57,0,0,1,4.67,2.14,7.9,7.9,0,0,1,1.49,4.95,9.94,9.94,0,0,1-.88,4.21,5.42,5.42,0,0,1-5.31,3.32h-5.9Zm5.53,12.93a5.43,5.43,0,0,0,1.65-.21,3.66,3.66,0,0,0,1.89-1.49,6.3,6.3,0,0,0,.85-2.27,8.55,8.55,0,0,0,.14-1.54,7.16,7.16,0,0,0-1.07-4.22,4,4,0,0,0-3.48-1.5h-3.52v11.23Z"/><path class="cls-1" d="M181.42,350.23h10.66V352h-8.73v4.44h8.07v1.69h-8.07v5h8.88v1.74H181.42Z"/><path class="cls-1" d="M196.87,350.23h2.33l7.39,11.84V350.23h1.88v14.62h-2.22L198.76,353v11.83h-1.89Z"/><path class="cls-1" d="M224.26,350.23V352h-4.92v12.88h-2V352H212.4v-1.74Z"/><path class="cls-1" d="M230.86,350.23h2.24l5.3,14.62h-2.17l-1.48-4.38H229l-1.58,4.38h-2Zm3.25,8.63-2.21-6.46-2.36,6.46Z"/><path class="cls-1" d="M242.24,350.23h2v12.88h7.41v1.74h-9.39Z"/><path class="cls-1" d="M265.71,350.23H268l5.3,14.62h-2.17l-1.48-4.38h-5.78l-1.58,4.38h-2Zm3.25,8.63-2.22-6.46-2.36,6.46Z"/><path class="cls-1" d="M277.33,350.23h6.77a6.72,6.72,0,0,1,2.76.49,3.45,3.45,0,0,1,2.06,3.45,3.62,3.62,0,0,1-2.06,3.49,3.06,3.06,0,0,1,1.29.92,3.42,3.42,0,0,1,.48,1.84l.07,2a5.67,5.67,0,0,0,.14,1.25,1.22,1.22,0,0,0,.63.89v.33h-2.42a1.76,1.76,0,0,1-.16-.49,8.07,8.07,0,0,1-.1-1.15l-.12-2.44a2,2,0,0,0-1.07-1.92,4.38,4.38,0,0,0-1.78-.27h-4.51v6.27h-2Zm6.56,6.7a3.83,3.83,0,0,0,2.2-.56,2.25,2.25,0,0,0,.82-2,2.16,2.16,0,0,0-1.14-2.13,3.66,3.66,0,0,0-1.62-.3h-4.84v5Z"/><path class="cls-1" d="M304.13,350.23V352h-4.92v12.88h-2V352h-4.93v-1.74Z"/><path class="cls-2" d="M92.5,282.81h6.6l15.61,43h-6.39L104,313h-17l-4.66,12.89h-6Zm9.58,25.4-6.53-19-6.94,19Z"/><path class="cls-2" d="M120.57,319.46h6.12v6.39h-6.12Z"/><path class="cls-2" d="M137,282.81h17.43q8.88,0,13.77,6.3,4.36,5.68,4.36,14.56a29.12,29.12,0,0,1-2.57,12.39q-4.55,9.79-15.62,9.79H137Zm16.26,38.06a16.09,16.09,0,0,0,4.86-.62,10.68,10.68,0,0,0,5.57-4.39,18.14,18.14,0,0,0,2.49-6.68,25.71,25.71,0,0,0,.44-4.51q0-8-3.18-12.42t-10.24-4.43H142.81v33.05Z"/><path class="cls-2" d="M180.57,319.46h6.12v6.39h-6.12Z"/><path class="cls-2" d="M209.19,282.81h6.59l15.62,43H225L220.65,313h-17L199,325.85h-6Zm9.58,25.4-6.53-19-6.94,19Z"/><rect class="cls-3" x="3.18" y="308.68" width="60" height="1.7"/><rect class="cls-3" x="244.18" y="308.68" width="60" height="1.7"/><path class="cls-3" d="M147.51,7.57c23-2.05,46.92,3.88,67,15.29,20.46,11.7,36.64,30.24,47,51.33,17.92,36.39,12.1,80.61-6.27,115.83a.4.4,0,1,0,.68.43,149.73,149.73,0,0,0,17.31-45.88c4.93-24.11,3.06-49.9-7.32-72.38S239,30.11,217.76,17.45,171.5-1.57,146.88.33c-16.34,1.39-32.81,4.07-48,10.6C81.76,18.08,67,31.54,60.23,49.1c-4.79,11.42-5.94,25.19.33,36.3a19.46,19.46,0,0,0,3.83,4.18c-6.88,28.62,10.18,71.17,21.5,94.58,4.09,7.93,7.74,15.9,14.47,22.16,8.44,8,20.15,7.93,28.64-.3.58-.57,1.06-1,1.57-1.63,3.37-3,7-6.1,10.56-9,3.87-3.11,7.86-6.26,11.94-9.3.25.05.5.1.75.17,10.26,2.75,14.48,13.54,22.23,20,17.29,13.45,32.28-11.88,38.54-25.41l.73-1.66c5.94,7.39,9.1,17.22,7.7,26.44A32.45,32.45,0,0,1,211.31,226c-25,20.58-76.65,17.69-106.33,8.65-60.22-18.22-80.66-79-77.41-136.82l-.79-.12A171.44,171.44,0,0,0,25.87,127c1,19.49,4.93,39,13.13,56.81,14.14,31.36,41.32,52.08,74.54,60,26.89,6.44,64.86,7.88,90.26-4C215,234.65,225,225.76,229,213.9c5.3-14.79.61-32-10.32-43,10.46-27,15.21-56.64,11.42-85.49-2.77-18.51-21.8-31.31-39.89-30.15-13.54.47-25.75,7.66-36.72,14.65-3.69,2.34-7.37,4.54-11.08,6.61C136.87,69.1,130,62.77,121.42,59c-17.67-7.44-43.34,4-53,20.08-.39.68-.73,1.4-1.08,2.11-4.48-8.43-3.64-19.13-.2-27.91C78.93,20.11,115.63,10.39,147.51,7.57Zm35.31,199.34c-3.93-1-7-3.91-9.67-6.84-5.31-5.88-10.48-13.16-18.68-15.06a152.13,152.13,0,0,1,21.42-13.49c6.06-3,11.31-4.67,17.56-4.24a29.08,29.08,0,0,1,18.83,8.52C207.51,187.75,196.63,210.12,182.82,206.91ZM157.41,76c6.91-4.36,13.76-8.92,21.43-11.55a44.65,44.65,0,0,1,11.83-2.39c14.36-1,29.89,8.42,33.12,22.89,4.58,27.14.48,56.68-8.54,82.79l-.72-.57a36.94,36.94,0,0,0-28.08-7.41c-9.8,1.55-18.46,7-26.68,12.2a286.53,286.53,0,0,0-34.4,27.33c-3.21,3.94-8.51,6.89-13.66,5.55-7.85-2.18-12.25-10-16.09-16.64-4-7-7.52-14.31-10.8-21.7-9.07-21.29-20-50.46-16.28-74.17,9.4,5.13,22.84,6.1,32.16,6.11a61.5,61.5,0,0,0,12.36-1.26,147,147,0,0,0,23-8.91c3.18-1.54,6.29-3.21,9.36-5a94.5,94.5,0,0,1,7.38,12.58l.73-.33a114.52,114.52,0,0,0-6.91-12.94C150.29,80.54,153.87,78.31,157.41,76Zm-36.9-14.61c8.2,3.16,14.87,9.16,20.42,15.92a152.17,152.17,0,0,1-21.66,9.79c-2.51.88-5.46,1.91-8,2.6a75.37,75.37,0,0,1-32.82-1.82,31,31,0,0,1-7.83-3.46C77.78,67.41,103.68,54.81,120.51,61.43Z"/></g></g></svg>